<?xml version="1.0" encoding="UTF-8"?>
<svg width="84px" height="84px" viewBox="0 0 84 84" version="1.1" xmlns="http://www.w3.org/2000/svg" xmlns:xlink="http://www.w3.org/1999/xlink">
    <!-- Generator: Sketch 52.5 (67469) - http://www.bohemiancoding.com/sketch -->
    <title>noun_Megaphone_904302</title>
    <desc>Created with Sketch.</desc>
    <g id="Page-1" stroke="none" stroke-width="1" fill="none" fill-rule="evenodd">
        <g id="noun_Megaphone_904302" fill="#016699">
            <g id="Group">
                <path d="M35.3928453,13.3823942 L0.766049623,69.7375042 C-0.445370838,71.709091 -0.145656303,74.2543437 1.49060377,75.8906038 L8.00834826,82.4083483 C9.64509061,84.0450906 12.1912782,84.3444439 14.1630034,83.1319462 L28.2,74.5 L30,76.3 C32.4,78.7 35.5,79.9 38.6,79.9 C40.8,79.9 43,79.3 45,78.1 C48.2,76.1 50.3,72.9 50.7,69.1 C51,66.5 50.4,63.9 49.2,61.6 L70.5957203,48.4272618 C72.9472084,46.9795172 73.6798374,43.8996305 72.2320928,41.5481423 C72.0254428,41.2124926 71.7798278,40.9024561 71.5003638,40.6244906 L43.1789504,12.4549346 C41.2210871,10.5075692 38.0552736,10.5160794 36.1079082,12.4739428 C35.8352288,12.7480921 35.5952709,13.0529466 35.3928453,13.3823942 Z M39.8,17.1 L66.8,44.1 L62.5,46.8 L37.1,21.4 L39.8,17.1 Z M5.9,72.2 L34.1,26.3 L57.5,49.7 L11.6,78 L5.9,72.2 Z M45,68.4 C44.8,70.4 43.6,72.1 41.9,73.2 C39.3,74.8 36,74.4 33.9,72.3 L33.1,71.5 L44.2,64.6 C44.9,65.8 45.2,67.1 45,68.4 Z" id="Shape" fill-rule="nonzero"></path>
                <rect id="Rectangle" transform="translate(72.908255, 11.192475) rotate(-45.000000) translate(-72.908255, -11.192475) " x="63.0083499" y="8.34250233" width="19.7998101" height="5.69994534" rx="2.84997267"></rect>
                <rect id="Rectangle" x="67.9" y="24.5" width="15.4" height="5.7" rx="2.84997267"></rect>
                <rect id="Rectangle" x="53.9" y="0.8" width="5.7" height="15.4" rx="2.85"></rect>
            </g>
        </g>
    </g>
</svg>