<?xml version="1.0" standalone="no"?>
<!DOCTYPE svg PUBLIC "-//W3C//DTD SVG 20010904//EN"
 "http://www.w3.org/TR/2001/REC-SVG-20010904/DTD/svg10.dtd">
<svg version="1.0" xmlns="http://www.w3.org/2000/svg"
 width="260.000000pt" height="260.000000pt" viewBox="0 0 260.000000 260.000000"
 preserveAspectRatio="xMidYMid meet">
<metadata>
Created by potrace 1.11, written by Peter Selinger 2001-2013
</metadata>
<g transform="translate(0.000000,260.000000) scale(0.100000,-0.100000)"
fill="#000000" stroke="none">
<path d="M1524 2301 c-17 -10 -60 -54 -95 -97 -50 -62 -278 -337 -387 -469
-10 -11 -37 -45 -62 -75 -25 -30 -47 -57 -50 -60 -3 -3 -37 -43 -75 -90 -38
-47 -77 -94 -87 -105 -9 -11 -108 -130 -219 -265 -111 -135 -249 -301 -306
-370 -138 -166 -143 -200 -52 -325 56 -78 107 -115 158 -115 29 0 269 98 525
215 l50 23 75 -77 c85 -85 151 -123 253 -144 243 -51 496 93 564 322 20 68 21
170 1 234 -15 47 -15 48 6 57 287 123 503 221 521 236 30 24 56 75 56 109 0
45 -26 90 -137 237 -60 78 -208 274 -328 433 -120 160 -227 298 -239 309 -46
40 -121 48 -172 17z m130 -1516 c0 -106 -57 -193 -164 -251 -50 -27 -190 -27
-245 1 -49 24 -131 103 -119 115 5 5 104 50 219 100 116 50 228 100 250 110
37 19 40 19 49 2 6 -9 10 -44 10 -77z"./>
</g>
</svg>
